<svg width="118" height="24" viewBox="0 0 118 24" fill="none" xmlns="http://www.w3.org/2000/svg">
<path d="M5.825 21L7.45 13.975L2 9.25L9.2 8.625L12 2L14.8 8.625L22 9.25L16.55 13.975L18.175 21L12 17.275L5.825 21Z" fill="#4C413B"/>
<path d="M29.825 21L31.45 13.975L26 9.25L33.2 8.625L36 2L38.8 8.625L46 9.25L40.55 13.975L42.175 21L36 17.275L29.825 21Z" fill="#4C413B"/>
<path d="M51.825 21L53.45 13.975L48 9.25L55.2 8.625L58 2L60.8 8.625L68 9.25L62.55 13.975L64.175 21L58 17.275L51.825 21Z" fill="#4C413B"/>
<path d="M75.825 21L77.45 13.975L72 9.25L79.2 8.625L82 2L84.8 8.625L92 9.25L86.55 13.975L88.175 21L82 17.275L75.825 21Z" fill="#4C413B"/>
<path d="M108.34 8.81934L108.457 9.09668L108.757 9.12305L114.78 9.64551L110.223 13.5977L109.995 13.7939L110.062 14.0879L111.421 19.9609L106.258 16.8467L106 16.6914L105.742 16.8467L100.578 19.9609L101.938 14.0879L102.005 13.7939L101.777 13.5977L97.2188 9.64551L103.243 9.12305L103.543 9.09668L103.66 8.81934L106 3.28418L108.34 8.81934Z" fill="#4C413B" stroke="#4C413B"/>
</svg>
