<svg width="20" height="17" viewBox="0 0 20 17" fill="none" xmlns="http://www.w3.org/2000/svg">
<path d="M18.75 7.27734H3.925L8.4625 1.99024C8.67467 1.7426 8.77675 1.42334 8.74628 1.10269C8.7158 0.782032 8.55527 0.486256 8.3 0.280425C8.04473 0.0745937 7.71563 -0.0244325 7.3851 0.00513127C7.05456 0.034695 6.74967 0.190427 6.5375 0.438068L0.2875 7.71389C0.245451 7.77176 0.207849 7.83256 0.175 7.89578C0.175 7.95641 0.175 7.99279 0.0875002 8.05343C0.0308421 8.19246 0.0011764 8.34047 0 8.48997C0.0011764 8.63948 0.0308421 8.78748 0.0875002 8.92652C0.0875002 8.98715 0.0874998 9.02353 0.175 9.08417C0.207849 9.14739 0.245451 9.20819 0.2875 9.26606L6.5375 16.5419C6.65503 16.6788 6.8022 16.7889 6.96856 16.8643C7.13491 16.9398 7.31636 16.9787 7.5 16.9784C7.79207 16.979 8.07511 16.8803 8.3 16.6995C8.42657 16.5977 8.5312 16.4727 8.60789 16.3316C8.68458 16.1905 8.73183 16.0361 8.74692 15.8773C8.76202 15.7185 8.74466 15.5583 8.69586 15.406C8.64705 15.2537 8.56775 15.1122 8.4625 14.9897L3.925 9.70261H18.75C19.0815 9.70261 19.3995 9.57485 19.6339 9.34744C19.8683 9.12002 20 8.81159 20 8.48997C20 8.16836 19.8683 7.85992 19.6339 7.63251C19.3995 7.4051 19.0815 7.27734 18.75 7.27734Z" fill="#163E61"/>
</svg>
