<svg width="26" height="26" viewBox="0 0 26 26" fill="none" xmlns="http://www.w3.org/2000/svg">
<path d="M21.1084 21.8335L14.3246 15.0497C13.7829 15.5112 13.16 15.8683 12.4558 16.1211C11.7517 16.3738 11.0439 16.5002 10.3325 16.5002C8.59772 16.5002 7.12944 15.8997 5.92767 14.6987C4.72589 13.4976 4.125 12.0297 4.125 10.2949C4.125 8.56013 4.72517 7.09149 5.9255 5.88899C7.12583 4.68649 8.59339 4.08452 10.3282 4.08307C12.0629 4.08163 13.5319 4.68252 14.7352 5.88574C15.9384 7.08896 16.54 8.5576 16.54 10.2917C16.54 11.0442 16.4067 11.7726 16.1403 12.4767C15.8737 13.1809 15.5235 13.7832 15.0894 14.2837L21.8733 21.0665L21.1084 21.8335ZM10.3336 15.4158C11.7708 15.4158 12.9841 14.9211 13.9736 13.9317C14.963 12.9422 15.4578 11.7285 15.4578 10.2906C15.4578 8.85263 14.963 7.63929 13.9736 6.65057C12.9841 5.66185 11.7708 5.16713 10.3336 5.1664C8.89636 5.16568 7.68267 5.6604 6.6925 6.65057C5.70233 7.64074 5.20761 8.85407 5.20833 10.2906C5.20906 11.7271 5.70378 12.9404 6.6925 13.9306C7.68122 14.9207 8.89456 15.4155 10.3325 15.4147" fill="#4C413B"/>
</svg>
