<svg width="211" height="26" viewBox="0 0 211 26" fill="none" xmlns="http://www.w3.org/2000/svg">
<path d="M60.1087 21.8334L53.3248 15.0496C52.7832 15.5111 52.1602 15.8682 51.4561 16.121C50.7519 16.3738 50.0441 16.5002 49.3327 16.5002C47.598 16.5002 46.1297 15.8996 44.9279 14.6986C43.7261 13.4975 43.1252 12.0296 43.1252 10.2948C43.1252 8.56007 43.7254 7.09143 44.9257 5.88893C46.1261 4.68643 47.5936 4.08445 49.3284 4.08301C51.0632 4.08157 52.5322 4.68245 53.7354 5.88568C54.9386 7.0889 55.5402 8.55754 55.5402 10.2916C55.5402 11.0441 55.407 11.7725 55.1405 12.4767C54.874 13.1808 54.5237 13.7832 54.0897 14.2837L60.8735 21.0664L60.1087 21.8334ZM49.3338 15.4158C50.771 15.4158 51.9844 14.921 52.9738 13.9316C53.9633 12.9422 54.458 11.7285 54.458 10.2905C54.458 8.85257 53.9633 7.63923 52.9738 6.65051C51.9844 5.66179 50.771 5.16707 49.3338 5.16634C47.8966 5.16562 46.6829 5.66034 45.6927 6.65051C44.7026 7.64068 44.2079 8.85401 44.2086 10.2905C44.2093 11.727 44.704 12.9403 45.6927 13.9305C46.6815 14.9207 47.8948 15.4154 49.3327 15.4147" fill="#4C413B"/>
<line opacity="0.8" x1="100.5" y1="4" x2="100.5" y2="25" stroke="#4C413B"/>
<path opacity="0.75" d="M5.424 20.192C4.66667 20.192 3.97333 20.0533 3.344 19.776C2.71467 19.488 2.18133 19.0987 1.744 18.608C1.30667 18.1173 0.992 17.568 0.8 16.96L2.16 16.4C2.448 17.168 2.87467 17.76 3.44 18.176C4.016 18.5813 4.688 18.784 5.456 18.784C5.92533 18.784 6.336 18.7093 6.688 18.56C7.04 18.4107 7.312 18.2027 7.504 17.936C7.70667 17.6587 7.808 17.3387 7.808 16.976C7.808 16.4747 7.664 16.08 7.376 15.792C7.09867 15.4933 6.688 15.2693 6.144 15.12L3.952 14.448C3.088 14.1813 2.42667 13.76 1.968 13.184C1.50933 12.608 1.28 11.9467 1.28 11.2C1.28 10.5493 1.43467 9.97867 1.744 9.488C2.064 8.98667 2.50133 8.59733 3.056 8.32C3.62133 8.032 4.26133 7.888 4.976 7.888C5.69067 7.888 6.336 8.016 6.912 8.272C7.49867 8.528 7.99467 8.87467 8.4 9.312C8.80533 9.73867 9.104 10.2293 9.296 10.784L7.952 11.344C7.696 10.672 7.312 10.1653 6.8 9.824C6.288 9.472 5.68533 9.296 4.992 9.296C4.56533 9.296 4.18667 9.37067 3.856 9.52C3.536 9.65867 3.28533 9.86667 3.104 10.144C2.93333 10.4107 2.848 10.7307 2.848 11.104C2.848 11.5413 2.98667 11.9307 3.264 12.272C3.54133 12.6133 3.96267 12.8747 4.528 13.056L6.528 13.648C7.46667 13.936 8.176 14.3467 8.656 14.88C9.136 15.4133 9.376 16.0747 9.376 16.864C9.376 17.5147 9.20533 18.0907 8.864 18.592C8.53333 19.0933 8.06933 19.488 7.472 19.776C6.88533 20.0533 6.20267 20.192 5.424 20.192ZM10.3918 20L17.8958 11.376H19.8158L12.3118 20H10.3918ZM15.1118 20.192C14.2798 20.192 13.5278 20 12.8558 19.616C12.1838 19.2213 11.6504 18.6827 11.2558 18C10.8611 17.3173 10.6638 16.544 10.6638 15.68C10.6638 14.816 10.8558 14.048 11.2398 13.376C11.6344 12.704 12.1678 12.1707 12.8398 11.776C13.5118 11.3813 14.2691 11.184 15.1118 11.184C15.9438 11.184 16.6958 11.3813 17.3678 11.776C18.0398 12.16 18.5678 12.688 18.9518 13.36C19.3464 14.032 19.5438 14.8053 19.5438 15.68C19.5438 16.5547 19.3411 17.3333 18.9358 18.016C18.5304 18.688 17.9918 19.2213 17.3198 19.616C16.6584 20 15.9224 20.192 15.1118 20.192ZM15.1118 18.752C15.6451 18.752 16.1251 18.6187 16.5518 18.352C16.9891 18.0853 17.3304 17.7173 17.5758 17.248C17.8318 16.7787 17.9598 16.256 17.9598 15.68C17.9598 15.0933 17.8318 14.576 17.5758 14.128C17.3304 13.6693 16.9891 13.3067 16.5518 13.04C16.1251 12.7627 15.6451 12.624 15.1118 12.624C14.5678 12.624 14.0771 12.7627 13.6398 13.04C13.2131 13.3067 12.8718 13.6693 12.6158 14.128C12.3598 14.576 12.2318 15.0933 12.2318 15.68C12.2318 16.256 12.3598 16.7787 12.6158 17.248C12.8718 17.7173 13.2131 18.0853 13.6398 18.352C14.0771 18.6187 14.5678 18.752 15.1118 18.752ZM25.1165 23.52C24.5085 23.52 23.9432 23.424 23.4205 23.232C22.9085 23.04 22.4658 22.7733 22.0925 22.432C21.7298 22.1013 21.4525 21.712 21.2605 21.264L22.6525 20.624C22.8018 21.0293 23.0845 21.3707 23.5005 21.648C23.9272 21.936 24.4605 22.08 25.1005 22.08C25.5912 22.08 26.0338 21.984 26.4285 21.792C26.8338 21.6107 27.1538 21.3333 27.3885 20.96C27.6232 20.5973 27.7405 20.1547 27.7405 19.632V17.696L28.0125 17.984C27.7138 18.5707 27.2818 19.0187 26.7165 19.328C26.1618 19.6373 25.5485 19.792 24.8765 19.792C24.0658 19.792 23.3405 19.6053 22.7005 19.232C22.0605 18.848 21.5592 18.3307 21.1965 17.68C20.8338 17.0187 20.6525 16.288 20.6525 15.488C20.6525 14.6773 20.8338 13.9467 21.1965 13.296C21.5592 12.6453 22.0552 12.1333 22.6845 11.76C23.3245 11.376 24.0498 11.184 24.8605 11.184C25.5325 11.184 26.1405 11.3387 26.6845 11.648C27.2392 11.9467 27.6818 12.3627 28.0125 12.896L27.7885 13.296V11.376H29.2445V19.632C29.2445 20.3787 29.0685 21.0453 28.7165 21.632C28.3645 22.2187 27.8738 22.6773 27.2445 23.008C26.6258 23.3493 25.9165 23.52 25.1165 23.52ZM25.0045 18.352C25.5165 18.352 25.9752 18.224 26.3805 17.968C26.7965 17.712 27.1272 17.3707 27.3725 16.944C27.6178 16.5067 27.7405 16.0213 27.7405 15.488C27.7405 14.9653 27.6178 14.4853 27.3725 14.048C27.1272 13.6107 26.7965 13.264 26.3805 13.008C25.9752 12.752 25.5165 12.624 25.0045 12.624C24.4818 12.624 24.0072 12.752 23.5805 13.008C23.1538 13.264 22.8178 13.6107 22.5725 14.048C22.3378 14.4747 22.2205 14.9547 22.2205 15.488C22.2205 16.0213 22.3378 16.5067 22.5725 16.944C22.8178 17.3707 23.1485 17.712 23.5645 17.968C23.9912 18.224 24.4712 18.352 25.0045 18.352Z" fill="#4C413B"/>
<path opacity="0.75" d="M157.328 21V9.08H158.896V15.784L158.512 15.624L164.208 9.08H166.176L161.392 14.6L161.472 13.48L166.416 21H164.544L160.768 15.336L158.896 17.48V21H157.328ZM170.322 21.192C169.703 21.192 169.143 21.048 168.642 20.76C168.151 20.472 167.767 20.072 167.49 19.56C167.223 19.0373 167.09 18.44 167.09 17.768V12.376H168.578V17.608C168.578 18.0347 168.663 18.408 168.834 18.728C169.015 19.048 169.26 19.2987 169.57 19.48C169.89 19.6613 170.252 19.752 170.658 19.752C171.063 19.752 171.42 19.6613 171.73 19.48C172.05 19.2987 172.295 19.0373 172.466 18.696C172.647 18.3547 172.738 17.9493 172.738 17.48V12.376H174.242V21H172.786V19.32L173.026 19.464C172.823 20.008 172.476 20.4347 171.986 20.744C171.506 21.0427 170.951 21.192 170.322 21.192ZM176.067 21V12.376H177.523V13.96L177.363 13.736C177.566 13.2453 177.875 12.8827 178.291 12.648C178.707 12.4027 179.214 12.28 179.811 12.28H180.339V13.688H179.587C178.979 13.688 178.488 13.88 178.115 14.264C177.742 14.6373 177.555 15.1707 177.555 15.864V21H176.067ZM183.581 21L180.205 12.376H181.869L184.573 19.672H183.997L186.717 12.376H188.381L184.989 21H183.581Z" fill="#4C413B"/>
</svg>
